<?xml version="1.0" standalone="no"?>
<!DOCTYPE svg PUBLIC "-//W3C//DTD SVG 20010904//EN"
 "http://www.w3.org/TR/2001/REC-SVG-20010904/DTD/svg10.dtd">
<svg version="1.0" xmlns="http://www.w3.org/2000/svg"
 width="260.000000pt" height="260.000000pt" viewBox="0 0 260.000000 260.000000"
 preserveAspectRatio="xMidYMid meet">
<metadata>
Created by potrace 1.14, written by Peter Selinger 2001-2017
</metadata>
<g transform="translate(0.000000,260.000000) scale(0.100000,-0.100000)"
fill="#000000" stroke="none">
<path d="M240 2589 c-38 -16 -71 -50 -91 -96 -13 -32 -24 -43 -40 -43 -31 0
-97 -72 -105 -115 -9 -49 2 -83 40 -121 44 -44 93 -53 148 -25 l43 21 93 -93
94 -94 -51 -88 c-51 -88 -98 -208 -120 -301 -11 -47 -16 -53 -60 -73 -109 -49
-114 -119 -11 -171 36 -19 39 -23 45 -77 25 -223 95 -411 206 -558 24 -32 50
-66 58 -77 13 -18 5 -29 -120 -154 l-134 -134 -43 21 c-55 28 -104 19 -148
-25 -38 -38 -49 -72 -40 -121 8 -43 74 -115 105 -115 16 0 26 -11 40 -43 32
-75 109 -120 175 -103 40 10 85 55 96 95 10 39 1 91 -21 118 -11 12 11 38 128
155 l141 141 58 -35 c33 -20 83 -48 112 -62 29 -15 56 -35 59 -44 42 -122 126
-223 226 -271 209 -102 447 -19 552 192 19 38 35 75 35 82 0 6 23 22 52 36 29
13 79 41 112 62 l59 39 139 -139 138 -138 -21 -43 c-28 -55 -19 -104 25 -148
38 -38 72 -49 123 -39 44 8 113 72 113 104 0 16 11 27 43 40 75 32 120 109
103 175 -10 40 -55 85 -95 96 -39 10 -91 1 -118 -21 -12 -11 -37 10 -149 122
l-135 135 50 62 c124 154 211 363 227 544 8 96 12 106 46 124 39 20 78 62 78
84 0 28 -37 67 -85 90 -32 16 -47 29 -51 48 -29 130 -84 263 -148 362 l-35 55
94 94 c78 79 96 92 108 82 27 -22 79 -31 118 -21 40 11 85 56 95 96 17 66 -28
143 -103 175 -32 13 -43 24 -43 40 0 32 -69 96 -113 104 -51 10 -85 -1 -123
-39 -44 -44 -53 -93 -25 -148 l21 -43 -87 -87 -87 -87 -31 24 c-223 183 -473
266 -757 252 -232 -11 -422 -81 -614 -229 l-66 -50 -90 89 -90 90 18 27 c22
35 23 106 0 141 -36 55 -106 78 -166 54z m113 -39 c51 -40 55 -113 10 -163 -9
-9 -13 -20 -9 -25 157 -156 366 -373 366 -379 0 -4 -21 -34 -47 -66 l-46 -59
-197 197 -196 196 -29 -23 c-21 -16 -43 -23 -73 -23 -37 0 -48 5 -73 33 -33
37 -37 77 -14 123 18 34 69 69 103 69 16 0 22 6 22 20 0 87 118 151 183 100z
m2008 5 c34 -18 69 -69 69 -102 0 -17 6 -23 20 -23 87 0 151 -118 100 -183
-40 -51 -113 -55 -163 -10 -9 9 -19 14 -21 12 -3 -2 -90 -88 -193 -191 l-189
-187 -54 60 -53 61 187 187 187 187 -23 29 c-16 21 -23 43 -23 73 0 37 5 48
33 73 37 33 77 37 123 14z m-804 -150 c52 -14 127 -39 167 -57 70 -31 208
-117 255 -158 l25 -21 -76 -76 -75 -75 -46 35 c-74 56 -146 94 -247 128 -132
44 -295 52 -433 20 -107 -25 -232 -83 -319 -150 l-57 -43 -76 76 c-41 41 -75
77 -75 80 0 2 36 32 81 65 135 102 325 179 494 201 106 13 273 2 382 -25z
m-60 -246 c159 -36 296 -120 406 -248 49 -56 123 -178 115 -187 -3 -2 -22 2
-44 9 -56 20 -201 45 -329 57 -144 13 -542 13 -681 -1 -105 -10 -319 -49 -358
-65 -16 -6 -14 2 13 52 94 177 263 315 458 374 139 42 265 45 420 9z m737
-293 c38 -77 86 -212 86 -244 0 -19 -3 -19 -42 -7 -24 7 -76 18 -117 26 -68
12 -74 15 -84 43 -6 17 -25 59 -43 94 l-31 64 75 75 76 75 22 -27 c12 -16 38
-60 58 -99z m-1705 40 l74 -75 -40 -87 -40 -88 -114 -23 c-63 -12 -117 -21
-121 -20 -9 3 54 192 83 249 32 62 68 118 77 118 4 0 41 -33 81 -74z m1272
-261 c203 -19 280 -30 413 -60 117 -26 232 -74 242 -100 8 -21 -19 -49 -71
-74 -39 -18 -228 -71 -254 -71 -7 0 -11 27 -11 68 0 79 -9 92 -80 117 -70 25
-124 35 -270 51 -501 53 -1199 4 -1265 -89 -9 -14 -15 -44 -15 -84 0 -47 -4
-63 -14 -63 -7 0 -56 11 -108 24 -157 40 -237 82 -223 118 9 24 92 65 175 87
160 43 406 76 685 91 194 11 596 3 796 -15z m-271 -85 c228 -11 399 -33 490
-64 l65 -21 -1 -110 c-2 -293 -163 -549 -429 -680 -110 -54 -182 -74 -300 -81
-232 -16 -454 72 -615 242 -112 118 -167 224 -201 389 -25 118 -25 216 -1 238
41 37 259 74 510 86 230 12 268 12 482 1z m-1113 -250 l72 -13 7 -41 c19 -121
88 -283 157 -369 l30 -39 -74 -74 c-40 -41 -76 -74 -79 -74 -12 2 -94 114
-135 185 -56 98 -112 268 -123 373 -4 45 -7 84 -5 86 2 2 20 -2 41 -9 20 -7
69 -18 109 -25z m1919 -40 c-13 -164 -91 -358 -200 -503 l-59 -79 -75 75 -76
76 41 58 c22 32 54 85 71 118 32 63 82 221 82 260 0 20 9 24 86 39 47 10 96
21 108 26 11 5 23 9 25 9 2 1 1 -35 -3 -79z m-1568 -497 c32 -26 59 -49 61
-50 2 -1 -104 -111 -235 -243 -131 -133 -241 -243 -243 -246 -2 -2 3 -12 12
-21 29 -33 39 -73 27 -109 -22 -66 -87 -91 -151 -59 -34 18 -69 69 -69 103 0
16 -6 22 -22 22 -34 0 -85 35 -103 69 -23 46 -19 86 14 123 25 28 36 33 73 33
30 0 52 -7 73 -23 l29 -23 235 236 c130 129 237 235 239 235 2 0 29 -21 60
-47z m1364 -190 c126 -126 231 -230 234 -232 2 -2 12 3 21 12 33 29 73 39 109
27 66 -22 91 -87 59 -151 -18 -34 -69 -69 -102 -69 -17 0 -23 -6 -23 -22 0
-34 -35 -85 -69 -103 -46 -23 -86 -19 -123 14 -28 25 -33 36 -33 73 0 30 7 52
23 73 l23 29 -238 238 -238 239 55 49 c30 27 59 50 64 50 4 0 111 -102 238
-227z m-1247 93 c17 -12 17 -18 5 -77 -8 -35 -14 -84 -14 -110 l-1 -46 -63 33
c-117 62 -115 52 -31 138 40 42 75 76 79 76 3 0 15 -6 25 -14z m982 -158 c-12
-10 -48 -31 -79 -47 l-58 -30 0 63 c0 34 -6 84 -14 110 -13 44 -13 47 7 61 20
14 25 11 93 -63 l73 -77 -22 -17z m-768 76 c7 -6 -22 -94 -31 -94 -5 0 -29 13
-52 30 -42 28 -83 91 -72 109 4 7 138 -33 155 -45z m561 31 c0 -40 -87 -125
-129 -125 -12 0 -35 79 -26 88 4 4 39 19 78 33 40 15 73 27 75 28 1 0 2 -10 2
-24z m-441 -51 l61 -7 0 -58 0 -58 -37 5 c-62 9 -133 26 -137 33 -9 14 29 101
41 97 6 -3 39 -8 72 -12z m-203 -70 c24 -14 44 -31 44 -36 0 -20 -23 -88 -30
-88 -12 0 -58 55 -79 95 -12 22 -21 56 -21 75 l1 35 20 -28 c12 -15 41 -39 65
-53z m467 31 c18 -52 13 -58 -56 -69 -20 -3 -53 -8 -72 -11 l-35 -6 0 60 0 60
43 4 c109 10 104 11 120 -38z m178 -53 c-26 -51 -69 -102 -86 -102 -7 0 -20
20 -28 45 l-16 45 37 19 c20 11 53 36 72 56 l35 36 3 -30 c2 -16 -6 -47 -17
-69z m-504 -32 c26 -5 65 -12 86 -15 l37 -6 0 -71 0 -70 -37 6 c-70 13 -140
36 -162 53 -21 18 -21 19 -5 66 9 26 20 47 24 47 5 0 30 -4 57 -10z m366 -42
c9 -29 13 -56 9 -60 -16 -16 -123 -48 -169 -51 l-48 -2 0 65 0 65 43 7 c23 5
61 12 85 17 23 5 47 9 53 10 5 0 18 -22 27 -51z m-431 -98 c185 -86 413 -50
545 87 l56 58 -8 -35 c-28 -130 -108 -236 -223 -292 -60 -30 -75 -33 -157 -33
-80 0 -97 3 -157 32 -113 53 -203 169 -224 287 l-7 40 56 -57 c35 -37 79 -68
119 -87z"/>
<path d="M893 1450 c-53 -11 -75 -23 -125 -68 -63 -57 -83 -103 -83 -197 0
-69 4 -86 27 -126 54 -92 135 -139 238 -139 103 0 184 47 238 139 23 40 27 57
27 126 0 62 -5 89 -22 121 -59 110 -179 168 -300 144z"/>
<path d="M1603 1450 c-78 -16 -153 -72 -189 -143 -26 -49 -30 -157 -9 -214 75
-195 336 -235 465 -72 57 72 72 155 45 246 -38 128 -177 210 -312 183z"/>
<path d="M1236 935 c-19 -17 -26 -34 -26 -60 0 -47 14 -71 51 -90 25 -13 37
-14 65 -5 69 23 87 99 35 151 -38 38 -87 39 -125 4z"/>
</g>
</svg>
